<?xml version="1.0" standalone="no"?>
<!DOCTYPE svg PUBLIC "-//W3C//DTD SVG 20010904//EN"
 "http://www.w3.org/TR/2001/REC-SVG-20010904/DTD/svg10.dtd">
<svg version="1.0" xmlns="http://www.w3.org/2000/svg"
 width="512.000000pt" height="512.000000pt" viewBox="0 0 512.000000 512.000000"
 preserveAspectRatio="xMidYMid meet">
<metadata>
Created by potrace 1.14, written by Peter Selinger 2001-2017
</metadata>
<g transform="translate(0.000000,512.000000) scale(0.100000,-0.100000)"
fill="#000000" stroke="none">
<path d="M0 2560 l0 -2560 2560 0 2560 0 0 2560 0 2560 -2560 0 -2560 0 0
-2560z m4339 -5 l1 -545 -1765 0 -1765 0 0 545 0 545 1765 0 1764 0 0 -545z"/>
<path d="M850 2555 l0 -505 1720 0 1720 0 0 505 0 505 -1720 0 -1720 0 0 -505z
m2401 259 c30 -9 66 -23 82 -30 l27 -15 -30 -58 -29 -59 -43 21 c-24 11 -63
21 -88 21 -38 1 -45 -2 -45 -19 0 -16 18 -26 90 -52 122 -43 155 -78 155 -161
0 -109 -67 -167 -195 -166 -69 0 -208 34 -220 54 -3 5 8 36 25 69 l30 60 52
-23 c71 -32 119 -40 143 -23 27 21 13 33 -77 63 -105 35 -148 72 -155 136 -10
86 31 152 112 182 53 19 100 19 166 0z m-1383 -8 c109 -57 137 -202 55 -288
l-26 -27 57 -91 c31 -49 56 -92 56 -95 0 -3 -36 -5 -79 -5 l-79 0 -49 80 c-41
68 -52 80 -75 80 l-28 0 0 -80 0 -80 -75 0 -75 0 0 260 0 260 145 0 c106 0
153 -4 173 -14z m562 -46 l0 -60 -110 0 -110 0 0 -35 0 -35 95 0 95 0 0 -60 0
-60 -95 0 -95 0 0 -40 0 -40 115 0 115 0 0 -65 0 -65 -185 0 -185 0 0 260 0
260 180 0 180 0 0 -60z m470 8 c0 -52 -2 -55 -111 -193 l-110 -140 113 -5 113
-5 3 -62 3 -63 -211 0 -210 0 0 54 0 54 121 144 120 143 -115 3 -116 3 0 59 0
60 200 0 200 0 0 -52z m690 -208 l0 -260 -75 0 -75 0 0 260 0 260 75 0 75 0 0
-260z"/>
<path d="M1700 2645 l0 -56 58 3 57 3 3 38 c4 53 -11 67 -69 67 l-49 0 0 -55z"/>
</g>
</svg>
